HIERARCHY
ROOT Hips
{
	OFFSET 0.00 0.00 0.00
	CHANNELS 6 Xposition Yposition Zposition Xrotation Yrotation Zrotation
	JOINT Spine
	{
		OFFSET 0.00000 1.15266 1.72900
		CHANNELS 3 Xrotation Yrotation Zrotation
		JOINT Spine1
		{
			OFFSET 0.00000 0.40032 2.27031
			CHANNELS 3 Xrotation Yrotation Zrotation
			JOINT Spine2
			{
				OFFSET 0.00000 0.20092 2.29656
				CHANNELS 3 Xrotation Yrotation Zrotation
				JOINT Spine3
				{
					OFFSET 0.00000 0.00000 2.30533
					CHANNELS 3 Xrotation Yrotation Zrotation
					JOINT Neck
					{
						OFFSET 0.00000 -0.86449 6.05149
						CHANNELS 3 Xrotation Yrotation Zrotation
						JOINT Head
						{
							OFFSET 0.00000 -0.55043 3.12167
							CHANNELS 3 Xrotation Yrotation Zrotation
							End Site
							{
								OFFSET 0.00000 0.00000 3.73175
							}
						}
					}
					JOINT RightShoulder
					{
						OFFSET -0.78828 -1.31380 4.25672
						CHANNELS 3 Xrotation Yrotation Zrotation
						JOINT RightArm
						{
							OFFSET -3.91513 0.00000 0.00000
							CHANNELS 3 Xrotation Yrotation Zrotation
							JOINT RightForeArm
							{
								OFFSET -6.91491 0.00000 0.00000
								CHANNELS 3 Xrotation Yrotation Zrotation
								JOINT RightHand
								{
									OFFSET -6.09622 0.00000 0.00000
									CHANNELS 3 Xrotation Yrotation Zrotation
									JOINT RightHandEnd
									{
										OFFSET -1.74995 0.00000 0.00000
										CHANNELS 3 Xrotation Yrotation Zrotation
										End Site
										{
											OFFSET -1.74995 0.00000 0.00000
										}
									}
									JOINT RightHandThumb1
									{
										OFFSET -0.69998 -1.16663 -0.46665
										CHANNELS 3 Yrotation Xrotation Zrotation
										End Site
										{
											OFFSET -1.69032 -0.45292 0.00000
										}
									}
								}
							}
						}
					}
					JOINT LeftShoulder
					{
						OFFSET 0.78828 -1.31380 4.25672
						CHANNELS 3 Xrotation Yrotation Zrotation
						JOINT LeftArm
						{
							OFFSET 3.91513 0.00000 0.00000
							CHANNELS 3 Xrotation Yrotation Zrotation
							JOINT LeftForeArm
							{
								OFFSET 6.91491 0.00000 0.00000
								CHANNELS 3 Xrotation Yrotation Zrotation
								JOINT LeftHand
								{
									OFFSET 6.09622 0.00000 0.00000
									CHANNELS 3 Xrotation Yrotation Zrotation
									JOINT LeftHandEnd
									{
										OFFSET 1.74995 0.00000 0.00000
										CHANNELS 3 Xrotation Yrotation Zrotation
										End Site
										{
											OFFSET 1.74995 0.00000 0.00000
										}
									}
									JOINT LeftHandThumb1
									{
										OFFSET 0.69998 -1.16663 -0.46665
										CHANNELS 3 Yrotation Xrotation Zrotation
										End Site
										{
											OFFSET 1.69032 -0.45292 0.00000
										}
									}
								}
							}
						}
					}
				}
			}
		}
	}
	JOINT RightUpLeg
	{
		OFFSET -2.33857 0.00000 -0.68318
		CHANNELS 3 Xrotation Yrotation Zrotation
		JOINT RightLeg
		{
			OFFSET 0.00000 0.00000 -10.74496
			CHANNELS 3 Xrotation Yrotation Zrotation
			JOINT RightFoot
			{
				OFFSET 0.00000 0.00000 -10.93085
				CHANNELS 3 Xrotation Yrotation Zrotation
				JOINT RightToeBase
				{
					OFFSET 0.00000 -4.08727 -1.48765
					CHANNELS 3 Xrotation Yrotation Zrotation
					End Site
					{
						OFFSET 0.00000 -1.89187 -0.00000
					}
				}
			}
		}
	}
	JOINT LeftUpLeg
	{
		OFFSET 2.33857 0.00000 -0.68318
		CHANNELS 3 Xrotation Yrotation Zrotation
		JOINT LeftLeg
		{
			OFFSET 0.00000 0.00000 -10.74496
			CHANNELS 3 Xrotation Yrotation Zrotation
			JOINT LeftFoot
			{
				OFFSET 0.00000 0.00000 -10.93085
				CHANNELS 3 Xrotation Yrotation Zrotation
				JOINT LeftToeBase
				{
					OFFSET 0.00000 -4.08727 -1.48765
					CHANNELS 3 Xrotation Yrotation Zrotation
					End Site
					{
						OFFSET 0.00000 -1.89187 -0.00000
					}
				}
			}
		}
	}
}
MOTION
Frames: 10
Frame Time: 0.008342
 1.4845 -114.7366 24.5566 -5.2031 0.8077 174.9079 4.4080 1.7833 0.1887 4.0768 -0.2431 0.2439 -8.6733 2.7824 4.3682 -2.1031 -0.4634 0.7334 -0.5541 -0.4078 -4.5157 4.7414 -3.5864 -7.2172 -16.8639 -0.9393 -1.5670 9.7131 -4.8779 4.1877 0.0000 0.0000 14.6278 -5.1764 14.4519 -7.8390 -0.0000 0.0000 -0.0000 0.0000 -0.0000 0.0000 -16.9352 -3.8887 5.6264 3.4088 5.9146 -14.5915 -0.0000 0.0000 3.0085 2.1536 -5.1311 -1.6251 0.0000 0.0000 -0.0000 0.0000 0.0000 0.0000 -5.9459 -2.4093 -9.0393 -0.1016 0.0000 -0.0000 -0.1661 2.6568 11.3527 0.8056 0.0000 0.0000 -6.1403 -1.0853 -4.0903 3.4148 0.0000 0.0000 -4.6602 2.7357 2.2726 -7.9760 0.0000 -0.0000
 1.4865 -114.7362 24.5566 -5.2249 0.8103 174.9080 4.3945 1.7735 0.1918 4.0704 -0.2491 0.2451 -8.6800 2.7922 4.3791 -2.1018 -0.4585 0.7338 -0.5432 -0.4021 -4.5274 4.7388 -3.5891 -7.2279 -16.8666 -0.9242 -1.5634 9.7179 -4.8918 4.1900 0.0000 0.0000 14.6212 -5.1986 14.4586 -7.8293 -0.0000 -0.0000 -0.0000 -0.0000 -0.0000 -0.0000 -16.9374 -3.8994 5.6174 3.4210 5.9411 -14.5843 -0.0000 0.0000 3.0283 2.1672 -5.1062 -1.6276 0.0000 0.0000 0.0000 0.0000 -0.0000 -0.0000 -6.0080 -2.4075 -8.8821 -0.0194 0.0000 -0.0000 -0.2040 2.6675 11.1955 0.8067 0.0000 0.0000 -6.1676 -1.0915 -4.0837 3.4251 0.0000 0.0000 -4.6579 2.7771 2.2600 -7.9976 0.0000 -0.0000
 1.4893 -114.7353 24.5565 -5.2438 0.8119 174.9100 4.3853 1.7614 0.1951 4.0629 -0.2566 0.2460 -8.6890 2.8023 4.3944 -2.0999 -0.4529 0.7320 -0.5275 -0.3949 -4.5412 4.7351 -3.5909 -7.2427 -16.8634 -0.9052 -1.5589 9.7193 -4.9072 4.1962 0.0000 0.0000 14.6109 -5.2289 14.4618 -7.8156 -0.0000 -0.0000 0.0000 -0.0000 -0.0000 0.0000 -16.9391 -3.9118 5.6053 3.4353 5.9739 -14.5719 -0.0000 0.0000 3.0517 2.1804 -5.0720 -1.6298 0.0000 0.0000 -0.0000 0.0000 -0.0000 0.0000 -6.0668 -2.4081 -8.7188 0.0652 0.0000 0.0000 -0.2438 2.6789 11.0307 0.8058 0.0000 0.0000 -6.1909 -1.1001 -4.0751 3.4357 0.0000 0.0000 -4.6567 2.8210 2.2430 -8.0162 0.0000 -0.0000
 1.4927 -114.7344 24.5565 -5.2722 0.8146 174.9140 4.3690 1.7474 0.1982 4.0543 -0.2655 0.2464 -8.7010 2.8132 4.4119 -2.0966 -0.4454 0.7309 -0.5081 -0.3882 -4.5573 4.7291 -3.5912 -7.2616 -16.8578 -0.8855 -1.5545 9.7200 -4.9215 4.2057 0.0000 0.0000 14.5977 -5.2663 14.4615 -7.7980 0.0000 0.0000 0.0000 0.0000 -0.0000 0.0000 -16.9417 -3.9254 5.5893 3.4523 6.0114 -14.5533 -0.0000 0.0000 3.0768 2.1927 -5.0320 -1.6316 -0.0000 -0.0000 0.0000 -0.0000 0.0000 0.0000 -6.1380 -2.4095 -8.5629 0.1555 0.0000 0.0000 -0.2866 2.6913 10.8715 0.8025 0.0000 0.0000 -6.2262 -1.1098 -4.0602 3.4508 0.0000 0.0000 -4.6574 2.8644 2.2181 -8.0306 0.0000 -0.0000
 1.4967 -114.7329 24.5564 -5.2966 0.8181 174.9204 4.3553 1.7341 0.2006 4.0448 -0.2763 0.2455 -8.7113 2.8233 4.4335 -2.0944 -0.4375 0.7296 -0.4840 -0.3803 -4.5770 4.7210 -3.5905 -7.2827 -16.8477 -0.8624 -1.5481 9.7190 -4.9365 4.2150 0.0000 0.0000 14.5850 -5.3061 14.4569 -7.7802 0.0000 -0.0000 -0.0000 0.0000 -0.0000 0.0000 -16.9428 -3.9430 5.5697 3.4685 6.0588 -14.5297 -0.0000 0.0000 3.1023 2.2056 -4.9886 -1.6311 -0.0000 -0.0000 -0.0000 0.0000 -0.0000 0.0000 -6.2017 -2.4115 -8.4071 0.2424 0.0000 0.0000 -0.3298 2.7042 10.7103 0.7973 0.0000 0.0000 -6.2553 -1.1191 -4.0496 3.4643 0.0000 0.0000 -4.6593 2.9026 2.1962 -8.0373 0.0000 -0.0000
 1.5014 -114.7308 24.5563 -5.3193 0.8204 174.9310 4.3411 1.7201 0.2035 4.0344 -0.2860 0.2458 -8.7197 2.8291 4.4521 -2.0914 -0.4288 0.7279 -0.4564 -0.3721 -4.5990 4.7114 -3.5885 -7.3064 -16.8364 -0.8361 -1.5409 9.7188 -4.9525 4.2261 0.0000 0.0000 14.5722 -5.3477 14.4498 -7.7602 0.0000 0.0000 0.0000 -0.0000 0.0000 -0.0000 -16.9436 -3.9581 5.5458 3.4860 6.1057 -14.4984 -0.0000 0.0000 3.1259 2.2134 -4.9413 -1.6314 -0.0000 -0.0000 0.0000 0.0000 0.0000 0.0000 -6.2557 -2.4168 -8.2765 0.3174 0.0000 0.0000 -0.3689 2.7164 10.5704 0.7893 0.0000 0.0000 -6.2810 -1.1304 -4.0394 3.4776 0.0000 0.0000 -4.6638 2.9341 2.1724 -8.0363 0.0000 -0.0000
 1.5065 -114.7282 24.5562 -5.3424 0.8221 174.9470 4.3229 1.7083 0.2054 4.0236 -0.2965 0.2454 -8.7248 2.8301 4.4677 -2.0874 -0.4196 0.7292 -0.4272 -0.3636 -4.6227 4.7005 -3.5848 -7.3327 -16.8212 -0.8081 -1.5347 9.7158 -4.9672 4.2390 0.0000 0.0000 14.5602 -5.3881 14.4396 -7.7398 0.0000 -0.0000 0.0000 0.0000 -0.0000 -0.0000 -16.9418 -3.9728 5.5214 3.5005 6.1552 -14.4663 -0.0000 0.0000 3.1475 2.2183 -4.8951 -1.6287 -0.0000 -0.0000 -0.0000 0.0000 -0.0000 0.0000 -6.3018 -2.4243 -8.1791 0.3792 0.0000 0.0000 -0.4040 2.7282 10.4583 0.7794 0.0000 0.0000 -6.3059 -1.1425 -4.0288 3.4903 0.0000 0.0000 -4.6704 2.9562 2.1448 -8.0254 0.0000 -0.0000
 1.5123 -114.7242 24.5562 -5.3461 0.8215 174.9675 4.3174 1.6990 0.2083 4.0148 -0.3049 0.2461 -8.7262 2.8244 4.4789 -2.0829 -0.4117 0.7288 -0.3959 -0.3539 -4.6472 4.6903 -3.5794 -7.3596 -16.8046 -0.7712 -1.5262 9.7117 -4.9899 4.2520 0.0000 0.0000 14.5508 -5.4227 14.4305 -7.7189 0.0000 -0.0000 -0.0000 0.0000 -0.0000 0.0000 -16.9379 -3.9868 5.4935 3.5132 6.2055 -14.4256 -0.0000 0.0000 3.1609 2.2168 -4.8525 -1.6246 0.0000 0.0000 -0.0000 0.0000 0.0000 0.0000 -6.3124 -2.4346 -8.1099 0.4185 0.0000 0.0000 -0.4328 2.7385 10.3703 0.7688 0.0000 0.0000 -6.3029 -1.1554 -4.0243 3.4944 0.0000 0.0000 -4.6785 2.9674 2.1216 -8.0054 0.0000 -0.0000
 1.5183 -114.7199 24.5561 -5.3513 0.8215 174.9934 4.3049 1.6926 0.2093 4.0048 -0.3131 0.2471 -8.7202 2.8165 4.4862 -2.0789 -0.4052 0.7290 -0.3642 -0.3456 -4.6713 4.6795 -3.5724 -7.3866 -16.7876 -0.7366 -1.5153 9.7069 -5.0099 4.2606 0.0000 0.0000 14.5456 -5.4497 14.4207 -7.6998 -0.0000 -0.0000 0.0000 -0.0000 -0.0000 0.0000 -16.9273 -3.9974 5.4737 3.5192 6.2504 -14.3966 -0.0000 0.0000 3.1759 2.2084 -4.8136 -1.6211 0.0000 0.0000 0.0000 0.0000 -0.0000 0.0000 -6.3150 -2.4455 -8.0695 0.4413 0.0000 0.0000 -0.4561 2.7488 10.3058 0.7571 0.0000 0.0000 -6.3001 -1.1673 -4.0259 3.4967 0.0000 0.0000 -4.6881 2.9676 2.1019 -7.9771 0.0000 -0.0000
 1.5245 -114.7152 24.5559 -5.3581 0.8205 175.0237 4.2883 1.6894 0.2111 3.9941 -0.3221 0.2456 -8.7109 2.8037 4.4926 -2.0743 -0.3985 0.7293 -0.3337 -0.3379 -4.6962 4.6695 -3.5657 -7.4128 -16.7720 -0.6992 -1.5078 9.7027 -5.0322 4.2716 0.0000 0.0000 14.5426 -5.4650 14.4140 -7.6824 0.0000 -0.0000 -0.0000 0.0000 -0.0000 0.0000 -16.9201 -4.0089 5.4485 3.5258 6.2965 -14.3594 -0.0000 0.0000 3.1800 2.1949 -4.7886 -1.6156 -0.0000 -0.0000 -0.0000 -0.0000 0.0000 0.0000 -6.3122 -2.4585 -8.0580 0.4521 0.0000 0.0000 -0.4751 2.7584 10.2658 0.7461 0.0000 0.0000 -6.2980 -1.1801 -4.0272 3.4983 0.0000 0.0000 -4.6994 2.9589 2.0798 -7.9422 0.0000 -0.0000
